<svg t="1642757593814" class="icon" viewBox="0 0 2448 1024" version="1.1" xmlns="http://www.w3.org/2000/svg" p-id="2577" width="200" height="200"><path d="M120.297739 921.466435a38.110609 38.110609 0 0 1 47.415652 1.157565l-30.408348 8.414609c-8.325565 15.449043-25.911652 8.45913-37.620869 15.716174l-9.483131 7.70226a110.547478 110.547478 0 0 1-32.01113-31.165217c-9.705739-1.157565-21.281391 7.123478-32.946087-10.952348l41.627826 4.006957 30.853565 5.342608z m1491.789913-18.387478l2.493218 1.691826c7.746783 8.325565-7.92487 12.288-10.195479 19.99026 0.534261 2.003478 0.801391 4.006957 0.801392 6.099479 11.709217 5.12 26.980174-8.45913 39.535304 9.037913a45.901913 45.901913 0 0 1-49.196522 0.534261c-19.500522 4.274087-39.001043 9.171478-58.63513 4.006956-5.787826 2.938435-14.336 4.006957-25.689044 3.250087-17.14087 3.82887-16.161391-12.866783-23.151304-20.569043-29.117217 27.291826-31.165217 27.603478-53.604174 7.746782-20.74713-16.740174-2.226087 28.004174-23.596522 15.003826-9.794783-5.965913-24.397913-3.962435-36.864-5.565217-49.152 8.726261-99.283478 9.839304-148.702608 3.294609-82.454261 1.647304-164.864 3.383652-247.27374 4.630261-4.36313 0.089043-8.726261-3.695304-13.044869-5.654261l-14.558609 4.096c-16.428522 7.791304-32.278261 11.887304-44.966956-6.366609-28.360348 20.346435-61.128348 10.99687-92.070957 13.133913-11.130435 0.75687-14.781217-7.657739-8.904348-18.209391-4.452174-28.449391-25.555478-11.709217-29.161739-5.787826-24.397913 40.292174-55.741217 26.35687-82.498782 9.572174-19.767652-12.466087-42.874435 7.034435-58.85774-12.243479-5.965913-1.958957-9.126957 1.068522-11.709217 5.030957l-3.828869 6.233043c-2.626783 3.917913-5.87687 6.767304-12.02087 4.541218-17.853217 6.856348-35.57287 15.671652-55.02887 5.565217l-23.06226 0.178087c-33.124174 11.353043-66.604522-0.801391-99.906783 2.092522-22.661565 4.185043-45.81287 4.941913-68.697044 2.359652l-18.610087 3.828869c-2.003478-11.041391 2.982957-12.510609 8.904348-12.777739l4.541218-0.044521a24.932174 24.932174 0 0 0 4.274087-0.445218h-0.445218c2.582261-12.154435-0.044522-21.014261-14.068869-22.661565l-8.726261 1.335652a14.425043 14.425043 0 0 1-9.438609 3.116522c-0.534261-0.178087-1.113043-0.044522-1.691826-0.133565a13.490087 13.490087 0 0 1-12.510609 10.195478c-11.486609 14.558609-28.004174 16.473043-44.655304 18.120348l-0.667826 3.33913-15.404522-3.561739-15.048348 0.133565a48.217043 48.217043 0 0 1-30.007652 0.445218c-23.952696 4.585739-31.387826-10.106435-34.548869-29.829566 6.41113-7.078957 14.959304-14.914783 17.897739 0.623305 3.116522 16.027826 11.264 17.452522 23.863652 14.781217 7.390609-6.767304 14.870261-11.130435 22.973217-1.157565l22.706087 0.044522-2.31513-13.356522c-5.609739-6.366609-16.384-16.339478 1.157565-17.051826 28.493913-1.157565 58.056348-8.637217 85.74887 5.609739 15.805217-7.524174 22.973217 0 29.161739 9.171478l3.650782 5.565218c1.825391 2.80487 3.695304 5.520696 5.832348 7.746782 7.702261-4.986435 6.455652-23.151304 22.706087-15.582608 42.651826-15.582609 86.817391-9.839304 130.582261-9.794783 13.846261-5.609739 24.932174-1.202087 35.661913 4.719304l9.126957 5.209044c3.027478 1.736348 6.099478 3.383652 9.260521 4.719304l0.623305-0.712348c15.226435-13.356522 37.086609-4.051478 52.847304-15.760695l7.791304 0.044521c18.16487-2.226087 36.507826-6.500174 53.426087 4.674783 21.993739-15.137391 46.747826-6.856348 70.121739-7.657739 49.597217-1.736348 99.283478-1.024 148.925218-0.712348 5.787826 0.044522 11.53113 2.493217 17.274435 5.342609l6.900869 3.428174c12.688696 6.188522 25.377391 10.24 37.977044-9.216 113.530435-0.801391 227.016348-1.380174 340.502261-1.691826 2.760348 0 5.520696 4.452174 8.236521 6.856347l16.027826 14.514087 22.483479-0.712347c-0.133565-49.819826 34.281739-19.812174 54.004869-23.774609 19.456 9.037913 42.651826-13.445565 60.772174 6.989913 1.335652 1.513739 2.003478 3.561739 1.736348 5.609739l13.490087 1.157565 16.250435-7.257043c4.541217-6.945391 9.349565-13.178435 18.075826-8.147478l3.116521-1.291131c0.890435 1.914435 1.647304 3.739826 2.315131 5.565217l1.958956 1.914435c16.428522 13.490087 26.89113-16.473043 42.829913-6.099478 1.335652 0.089043 2.760348 0.089043 4.185044 0.044522l8.993391-0.356174c5.965913-0.178087 11.442087 0.044522 14.113392 2.938435z m-1563.826087-33.480348c5.87687 0 13.801739-1.024 14.425044 7.43513 0.667826 9.216-6.544696 12.377043-13.178435 13.534609-8.592696 0.311652-13.801739-3.472696-13.935304-10.462609-0.089043-7.346087 5.743304-10.596174 12.688695-10.50713z m5.520696-286.408348c5.609739-4.808348 14.336-12.243478 15.404522 0.756869 1.469217 17.942261 7.43513 37.442783-5.654261 54.316522l8.236521 176.662261c-5.87687 31.47687-11.308522 35.706435-35.750956 28.271304a118.784 118.784 0 0 1-11.130435-54.227478c0.845913-65.80313 0.178087-131.650783 0.133565-197.453913 6.90087-12.332522 19.634087-4.006957 28.761044-8.325565z m104.626087 290.726956c17.051826-14.246957 30.096696-5.209043 42.117565 1.825392a35.661913 35.661913 0 0 1-42.162087-1.78087z m86.772869-6.856347c-0.178087 2.493217 0.489739 5.832348-0.667826 6.767304-10.24 8.147478-20.168348 9.260522-31.165217-5.030957a36.953043 36.953043 0 0 1 31.833043-1.780869z m23.151305 3.116521c20.880696-9.794783 37.042087-8.236522 63.265391 5.832348-27.113739 0.979478-44.076522 12.466087-63.22087-5.876869z m483.59513-6.144c19.144348-8.013913 41.22713-3.383652 55.429565 11.753739l-55.206956 1.068522-99.862261 3.294609-7.880348-0.400696c-12.466087 2.226087-25.243826 0.445217-36.596869-4.986435-11.931826 10.596174-26.445913 5.075478-39.846957 6.678261-42.785391 0-86.461217 8.192-136.013913-10.818782l2.893913 1.024a60.816696 60.816696 0 0 1-48.706783 5.342608c-1.647304-0.534261-1.914435-6.233043-2.849391-9.572174l56.809739-6.366608c-1.335652 3.294609-2.181565 5.520696-2.715826 6.989913 14.380522-6.544696 30.319304-8.904348 46.035478-6.811826 10.685217-3.561739 22.394435-1.335652 30.987131 5.832348l15.582609 0.623304c17.942261-17.452522 41.538783 3.116522 60.237913-9.305044 18.253913 2.760348 37.398261-2.404174 54.984347 6.188522a26.35687 26.35687 0 0 1 29.517914-1.424695c15.716174-10.551652 31.610435-3.82887 47.460173-0.712348 7.346087 2.31513 15.003826-7.43513 22.305392 0.311652 2.537739 0 5.030957 0.445217 7.43513 1.335652z m110.681044-3.383652c10.061913-0.667826 21.815652-4.897391 25.332869 9.750261 1.335652 5.609739-7.123478 5.075478-12.065391 4.897391-14.380522 0.445217-29.829565 6.989913-42.162087-7.791304 6.678261-11.219478 17.452522-4.674783 25.956174-6.767304z m92.605217-0.400696c25.510957 6.233043 54.53913-16.161391 81.341217 11.620174l-81.118608 1.602783-30.185739 0.445217c-7.301565-1.335652-21.904696 6.233043-19.277913-7.746782 2.092522-11.264 16.695652-5.921391 26.267826-5.12zM174.436174 67.762087c14.60313 35.84 14.60313 35.84-20.168348 37.086609-90.112 3.33913-90.468174 3.33913-89.800348 93.362087 0.801391 106.585043 2.493217 213.214609 3.294609 319.844174 0.089043 15.315478 5.654261 33.257739-22.038261 35.08313-23.240348 1.558261-22.082783-13.57913-21.014261-24.264348l0.445218-4.541217v-1.914435a2553.143652 2553.143652 0 0 1-0.578783-264.414609c2.671304-42.74087-3.116522-85.926957-3.294609-128.934956a115.756522 115.756522 0 0 0-0.178087-5.654261l-0.801391-11.397565c-0.845913-13.356522-0.623304-26.802087 9.883826-38.333218 14.959304-26.35687 36.196174-7.568696 54.761739-7.880348 24.175304 0.534261 49.730783-15.003826 70.344348 14.914783 10.462609 15.181913 11.308522-10.017391 19.144348-12.955826zM1118.47513 857.043478c-4.229565 12.109913-10.863304 13.712696-17.586087 13.534609l-5.743304-0.356174a21.815652 21.815652 0 0 0-7.924869 0.445217c-7.212522 2.003478-15.894261 4.585739-18.788174-4.496695-2.893913-9.082435 5.342609-8.548174 11.486608-8.414609zM117.537391 370.688c17.14087 50.44313 8.45913 102.043826 6.856348 152.932174-14.781217-50.754783-11.041391-101.776696-6.856348-152.932174zM1271.54087 865.28l-132.452174 2.582261a217.488696 217.488696 0 0 1 132.452174-2.582261z m88.33113-12.911304c14.246957-0.75687 28.850087-5.298087 46.302609 5.654261-15.983304 13.356522-31.432348 8.592696-45.990957 8.192l-30.363826-0.445218c-9.082435 1.647304-21.548522 7.657739-24.84313-4.274087-2.137043-7.613217 9.661217-8.681739 17.318956-8.013913z m-59.970783-31.165218c5.787826-0.890435 13.000348-3.027478 15.671653 8.548174-2.80487 2.493217-5.87687 7.479652-9.928348 8.414609a12.198957 12.198957 0 0 1-14.825739-8.94887c-2.537739-8.45913 5.075478-7.390609 9.082434-8.013913z m945.463653 87.707826c-0.311652 12.065391 6.811826 24.041739-7.257044 32.634435a35.305739 35.305739 0 0 1-30.185739-6.233043c-37.398261 6.989913-75.686957 7.657739-113.263304 1.958956-21.014261-2.849391-43.052522 3.116522-64.690087 3.650783a163.172174 163.172174 0 0 1-82.810435-16.428522c-2.938435 2.938435-5.87687 5.921391-8.859826 8.815304-6.90087 23.863652-14.692174 8.370087-22.305392 0.578783l-14.692173 1.113043a7.168 7.168 0 0 1-5.565218 0.623305c-1.736348 4.274087-7.301565 6.144-16.918261 5.298087-70.210783 0.445217-140.421565 0-210.587826 1.825391-21.77113 0.623304-31.610435-4.452174-26.802087-27.291826-5.832348-1.113043-16.384-1.513739-13.712695-8.281043 5.609739-13.935304 13.623652 0.712348 20.791652 0.934956 27.737043-13.222957 57.254957-6.054957 85.926956-7.568696 34.148174-1.825391 68.474435-0.311652 102.578087-2.760347 12.02087-1.825391 23.997217-0.133565 34.726957 4.63026 4.541217-7.346087 15.404522 3.294609 21.904695 1.246609 16.384-2.760348 34.281739-23.774609 48.306087 3.650783 2.137043 1.335652 3.116522 3.962435 2.448696 6.41113 44.343652-22.617043 89.666783-15.137391 136.993391-12.911304 30.72 0.356174 61.395478-1.513739 91.803826-5.609739 16.027826-1.78087 33.391304-2.671304 42.073044 16.339478 2.092522 8.45913 5.342609 15.760696 15.894261 15.493565a21.370435 21.370435 0 0 0 1.424695-2.671304l2.493218-5.832348a16.205913 16.205913 0 0 1 10.24-9.616696zM1448.603826 858.37913c25.421913-12.466087 42.073043-10.017391 59.347478 2.671305a79.60487 79.60487 0 0 1-59.347478-2.671305z m163.57287-7.924869c-14.202435 16.65113-25.243826 10.150957-36.107131 7.301565a36.774957 36.774957 0 0 1 36.107131-7.301565zM400.562087 136.681739c9.171478 1.513739 23.418435-5.965913 26.312348 5.342609 3.33913 13.000348-10.551652 9.037913-18.253913 10.017391h-38.511305l-61.573565 2.137044c-25.644522-9.794783-51.2 6.589217-76.8 0.445217l-45.812869 0.934957c-17.185391 10.596174-35.617391-8.859826-52.758261 2.359652l-8.102957 7.257043 0.712348 38.244174 2.849391 4.85287a42.74087 42.74087 0 0 1 0.356174 37.531826l-2.804869 4.986435 1.469217 94.208c-22.79513-26.713043-15.671652-57.655652-16.473043-87.396174l0.400695-10.863305c0.089043-32.589913-8.45913-65.536 4.585739-97.591652a15.270957 15.270957 0 0 1 15.404522-7.390609l53.871304-1.202087a79.248696 79.248696 0 0 1 45.81287 5.209044 112.283826 112.283826 0 0 1 77.779478-1.869913c20.034783-6.589217 41.494261-7.078957 61.707131-1.335652z m1410.003478 714.440348c7.257043 0.178087 16.873739-11.709217 21.192348 1.78087 2.80487 8.815304-5.164522 12.466087-13.57913 12.421565l-53.693218 0.890435c-10.329043-5.698783-20.48 1.202087-30.764522 0.578782-17.897739 0.445217-35.795478 1.246609-53.693217 1.291131-8.45913 0-15.760696-4.140522-14.514087-13.712696 1.157565-8.94887 8.993391-5.654261 15.137391-5.832348 12.599652-0.445217 25.199304-1.958957 37.754435-3.027478 15.582609-1.736348 31.343304 0.445217 45.857392 6.233043z m194.56 0.356174l6.010435 2.938435c-17.363478 10.329043-38.778435 10.685217-56.364522 0.934956l5.565218 2.671305c-5.87687 3.205565-11.575652 7.078957-18.966261 3.561739a87.841391 87.841391 0 0 1-48.528696-1.202087c9.661217-20.74713 27.514435-8.637217 40.737391-12.466087 12.599652 3.027478 27.603478-6.856348 38.244174 6.767304l-2.671304-2.671304c11.709217-3.606261 24.486957-7.479652 41.984 2.404174z m136.94887 8.325565c21.726609-17.229913 36.953043-20.524522 59.258435-8.726261a102.088348 102.088348 0 0 1-59.213913 8.726261z m210.765913-11.575652c44.210087-3.294609 0.578783 21.548522 9.260522 29.651478 16.606609-2.003478 20.524522 7.43513 17.363478 21.147826-3.027478 12.777739-10.061913 13.57913-18.610087 4.140522-8.102957 1.78087-15.404522 10.863304-24.620522 2.80487-11.575652-10.150957-0.133565-18.342957 2.359652-27.291827 1.29113-11.753739-14.692174-31.654957 14.246957-30.452869z m-69.632-10.24c0.311652 3.561739 2.137043 8.102957 0.667826 10.551652-9.438609 15.226435-23.373913 8.192-35.84 1.78087zM1825.213217 39.66887c15.003826 2.671304 25.199304 4.541217 19.366957 22.839652 12.466087 22.26087 12.466087 22.26087-25.6 22.572521l1.602783 0.044522a14.870261 14.870261 0 0 1-4.006957 0.979478 27.069217 27.069217 0 0 1-9.705739 2.181566 43.497739 43.497739 0 0 1-8.459131 1.647304c-46.925913 0.890435-93.851826 0.934957-140.688695-1.914435-57.878261 0.578783-115.756522 4.897391-173.545739-1.246608-102.489043 8.058435-205.334261 9.572174-307.912348 4.452173-69.275826 1.380174-138.685217 10.818783-207.471305-4.096l0.623305 0.75687c-55.830261 19.456-113.39687 5.476174-169.984 9.572174-14.336 5.654261-21.815652-24.932174-38.377739-7.168l-0.356174 0.489739a26.579478 26.579478 0 0 1-11.753739 4.051478c-21.504 6.233043-44.29913 5.965913-65.580522-0.712347a1548.55513 1548.55513 0 0 1-224.968348 6.099478c-15.003826 2.226087-30.274783 1.558261-45.056-1.958957-31.788522 1.691826-64.066783 12.466087-94.831304-5.520695-13.04487-7.657739-20.48 13.801739-33.747479 7.746782-17.497043 2.226087-35.08313 3.250087-52.713739 3.116522-11.709217-0.667826-29.562435 9.661217-34.192695-9.394087-2.092522-8.770783-13.801739-20.658087-3.695305-27.648a34.192696 34.192696 0 0 1 44.966957 2.893913l16.250435 7.568696-0.623305-12.644174c2.226087-6.589217 7.123478-6.144 12.154435-5.342609 36.062609-14.024348 73.015652-7.524174 109.879652-0.311652 37.843478 4.674783 77.022609-12.332522 113.975652 6.856348 3.561739 3.116522 8.993391 9.661217 10.507131 8.815304 64.333913-34.370783 131.561739-17.586087 198.077217-13.222956l15.137392-0.089044 0.445217-0.311652c26.445913-13.623652 54.806261-6.41113 82.142609-6.366609 54.316522 0 108.900174-8.592696 163.038608 1.78087l7.880348 6.500174 23.373913-6.233044c62.152348-12.822261 125.106087-4.897391 187.614609-7.034435a6854.121739 6854.121739 0 0 1 261.431652-3.205565c11.308522 0 29.517913-8.904348 35.750957 11.575652 51.110957-22.973217 105.382957-8.013913 157.918608-13.712695 28.40487-3.116522 57.210435 7.034435 85.570783-2.226087 24.486957 4.85287 47.771826-7.702261 72.436869-5.075478 6.054957 0.623304 11.353043 1.335652 15.671653 3.561739a36.59687 36.59687 0 0 1 17.452521-0.712348zM462.758957 140.688696c10.106435-1.513739 24.665043-12.466087 26.935652 5.609739 0.75687 6.099478-15.894261 15.270957-28.048696 5.698782-6.811826 0.534261-14.024348 8.370087-20.48 0.178087a9.216 9.216 0 0 1 1.602783-13.490087 13.890783 13.890783 0 0 1 19.990261 2.003479z m1872.13913 499.222261c-1.691826-37.442783 5.342609-41.494261 44.744348-25.06574 1.024 30.72 1.78087 61.44 3.116522 92.115479 1.068522 24.531478-32.367304 29.384348-30.274783 54.272a44.477217 44.477217 0 0 0 9.305043 6.41113c13.623652 4.986435 15.048348 16.027826 13.534609 27.915131a10.596174 10.596174 0 0 1-6.989913 7.078956c-7.479652 1.024-10.373565-2.626783-12.288-7.123478l-2.137043-5.609739c-1.068522-2.760348-2.31513-5.253565-4.452174-6.678261-9.037913-5.87687-11.219478-11.397565-6.455653-20.48-22.171826-23.908174-4.051478-51.912348-7.568695-77.734957l-0.089044-30.052174zM633.410783 146.565565a142.736696 142.736696 0 0 1-72.43687 8.281044 25.199304 25.199304 0 0 1-20.257391-12.02087c14.06887-2.80487 26.045217-6.678261 36.685913 5.565218 8.370087-12.777739 17.808696-11.130435 27.425391-7.390609l7.212522 3.072c7.257043 3.072 14.469565 5.609739 21.370435 2.493217z m105.472-5.476174c-15.62713 10.551652-29.96313 6.233043-43.809392 5.431652-16.250435-3.561739-33.836522 14.246957-52.669217-2.893913 16.784696-6.099478 34.905043-7.568696 52.446609-4.185043 14.514087-3.784348 29.829565-3.205565 44.032 1.647304z m650.996869-8.013913c14.380522-15.449043 27.247304-3.027478 40.514783 1.602783-13.222957 6.010435-26.223304 12.55513-40.603826 4.585739l-61.44 1.202087-115.177739 2.760348-314.590609 5.075478c-14.06887-0.489739-29.072696 5.787826-47.816348-6.767304a119.763478 119.763478 0 0 1 62.775652-6.678261c15.315478 0.534261 32.055652-9.572174 45.234087 6.233043 46.792348-8.192 93.94087-9.794783 141.04487-10.329043l56.58713-0.445218a1521.307826 1521.307826 0 0 0 56.542609-1.55826l115.133217-0.623305c20.569043 2.671304 41.850435-4.229565 61.796174 4.897392zM2281.293913 274.298435c1.202087 72.748522 8.013913 145.274435-0.890435 218.334608l7.346087 6.989914c8.770783 6.366609 4.185043 11.798261-1.202087 17.185391-8.859826 18.966261-0.934957 39.802435-5.787826 66.782609-14.647652-25.911652-7.301565-46.970435-8.681739-66.827131l-2.715826-6.188522-15.894261-13.133913 16.517565-3.784348 0.222609-46.213565-0.356174-38.066087-2.092522-134.900869z m59.837217-30.809044a40.737391 40.737391 0 0 1 34.28174 39.090087c-0.845913 34.54887 0.133565 69.097739 0.400695 103.691131 0.089043 12.777739 0.356174 25.555478 0.578783 38.377739h-1.78087c0.667826 44.655304-0.178087 89.444174 2.671305 133.921391 1.335652 21.23687-9.97287 23.151304-24.576 25.377391-21.014261 3.116522-18.387478-11.842783-18.521044-24.486956-0.890435-94.386087-2.31513-188.772174-1.513739-283.158261 0.089043-10.774261-11.976348-34.726957 8.45913-32.812522zM1458.93287 124.215652c9.661217 0.133565 17.808696 3.116522 14.469565 14.692174-2.359652 8.013913-8.592696 6.41113-13.712696 1.246609-7.301565-2.181565-20.836174 4.36313-19.767652-9.661218 0.578783-8.770783 11.53113-7.123478 19.010783-6.277565z m219.492173 0.890435c11.130435-4.096 21.593043 0.667826 36.062609 8.592696a153.421913 153.421913 0 0 1-55.652174 8.770782c-25.555478-1.825391-52.090435 7.92487-76.577391-6.144l-23.106783 0.890435c-7.92487 2.80487-15.671652 8.993391-24.041739 1.157565-9.394087-2.582261-24.665043 15.048348-27.648-3.383652-2.671304-16.250435 15.226435-12.955826 25.288348-12.466087 19.500522 0.890435 39.891478-6.856348 58.457044 4.85287a29.250783 29.250783 0 0 1 34.726956-0.267131c15.671652-5.342609 32.634435-5.342609 48.261565 0z m56.008348-0.578783c3.739826-1.647304 8.147478-2.671304 13.089392 9.082435-1.914435 0.890435-6.366609 3.116522-11.041392 4.808348-6.722783 2.448696-12.644174 0.845913-14.024348-6.500174-0.311652-1.602783 6.589217-5.030957 10.596174-6.811826z m301.857392-3.962434c-29.829565 18.253913-62.508522 15.048348-94.386087 17.274434a10.640696 10.640696 0 0 1 0.801391-15.449043z m266.150956-75.24174c17.497043 6.633739 40.826435-31.833043 54.138435 6.90087l7.479652 15.270957 3.116522 3.873391c12.599652 16.784696 12.332522 33.970087-5.965913 47.326609a22.706087 22.706087 0 0 0-9.794783 25.466434c11.353043 2.404174 17.096348 8.548174 13.267478 23.596522l-29.829565-22.884174a43.008 43.008 0 0 1-2.003478-50.754782c-20.168348-23.596522-47.37113-9.305043-71.190261-12.555131-30.408348-4.185043-62.642087 8.904348-91.714783-9.48313l-13.133913 6.989913a149.281391 149.281391 0 0 1-107.876173 2.092521c-25.6 0.75687-51.110957 7.257043-76.8 1.157566-23.908174 3.116522-48.083478 3.161043-71.991653 0.089043-15.226435-3.383652-27.603478-10.106435-28.004174-28.493913-7.257043 0.712348-16.606609 3.561739-19.366956-5.342609-2.270609-7.301565 5.609739-10.863304 11.887304-9.794782 17.986783 3.116522 37.264696-6.767304 54.227479 5.38713l22.082782 0.667826 15.671652-0.445217 7.524174-0.311652 75.642435 2.671304c-3.161043-5.520696-1.914435-10.50713 4.36313-10.774261 32.768-1.335652 65.491478-2.226087 98.259479-2.671304 8.548174-0.089043 13.312 5.965913 14.692174 14.425043 34.54887-16.918261 71.813565 2.760348 106.852174-8.192 12.955826 0.75687 27.692522-9.883826 38.42226 5.698783z m-78.269217 73.149218c17.942261-4.452174 35.750957-7.257043 51.556174 12.466087 10.952348 19.634087 4.541217 40.826435 5.075478 61.350956-0.534261 7.524174 5.698783 21.370435-8.013913 18.743652-11.041391-2.003478-6.233043-16.473043-6.010435-25.822608l-0.979478-54.316522a67.405913 67.405913 0 0 0-18.120348-0.667826l-12.243478 1.068522c-12.243478 0.979478-24.397913 0.890435-35.661913-7.702261a101.509565 101.509565 0 0 0 14.60313-2.671305z m-84.235131 0.890435c-14.291478 23.997217-34.415304 12.777739-51.2 14.425043-9.928348-0.356174-26.401391 8.45913-26.089739-8.325565 0.133565-10.640696 16.473043-5.209043 25.956174-5.075478z m190.107826 57.165913c19.144348-5.565217 36.552348-6.233043 42.518261 16.918261 2.137043 8.102957 8.013913 22.483478-4.006956 27.15826-12.733217 5.075478-12.421565-9.126957-14.558609-16.829217-3.561739-12.55513-22.438957-7.92487-23.908174-27.247304zM705.714087 716.8c6.233043 4.941913 13.089391 1.825391 20.569043-9.349565a1758.742261 1758.742261 0 0 0 70.433392-254.976c4.36313-13.712696 9.97287-26.178783 18.69913-35.528348 7.479652-9.349565-15.582609-18.075826-69.186782-27.425391a194.916174 194.916174 0 0 0-50.487653 2.493217c0.623304-3.739826 1.869913-7.479652 3.116522-11.219478 12.466087-53.604174 24.30887-86.639304 33.658435-100.352 3.739826-5.609739-4.36313-11.842783-24.932174-19.945739-21.192348-7.479652-31.165217-6.856348-28.672 1.869913 1.246609 11.842783-2.493217 35.528348-10.596174 71.68-6.233043 22.438957-12.466087 45.501217-17.452522 69.186782-23.062261 7.479652-42.384696 14.336-57.967304 20.569044-18.69913 7.479652-29.918609 11.219478-34.905043 11.219478-12.466087-1.869913-14.959304 9.349565-8.102957 33.658435 5.609739 24.30887 13.712696 29.295304 24.30887 14.336 4.986435-5.609739 16.205913-12.466087 34.281739-19.945739 8.726261-3.739826 19.322435-8.102957 31.788521-11.842783v0.623304c-9.97287 43.008-28.672 88.509217-56.720695 137.126957-36.774957 43.631304-61.70713 75.419826-74.796522 96.612174-8.102957 9.97287-4.36313 12.466087 10.596174 7.479652 47.37113-24.30887 76.04313-43.631304 85.392696-57.967304 9.349565-13.089391 18.075826-24.932174 26.178782-34.281739 4.36313-9.97287 4.986435-18.69913 2.493218-25.555479-3.739826-6.856348 3.116522-27.425391 19.945739-61.70713 9.97287-20.569043 19.945739-46.747826 29.295304-77.289739 26.802087-8.726261 44.877913-10.596174 52.98087-4.363131 11.842783 14.959304 13.712696 46.124522 4.986434 95.98887-9.349565 49.241043-25.555478 87.885913-48.617739 116.557913-8.726261 6.856348-25.555478 1.246609-51.110956-15.582609-12.466087-6.856348-14.336-4.986435-6.856348 4.986435 11.219478 21.192348 28.672 43.631304 52.98087 67.31687 6.233043 6.233043 13.089391 10.596174 18.69913 15.582608z m170.785391-98.526609c0 5.609739 2.493217 6.856348 8.102957 4.363131 23.062261-13.089391 57.344-18.69913 103.468522-18.075826 7.479652-1.246609 11.219478-6.233043 9.972869-13.712696-1.246609-11.842783 4.986435-34.905043 16.829217-66.070261s23.685565-50.487652 34.28174-57.967304c9.349565-8.726261-9.349565-20.569043-55.474087-36.151652-26.802087-6.233043-59.213913-4.986435-99.728696 5.609739-41.138087 11.219478-64.823652 15.582609-72.303304 15.582608-8.726261 1.869913-9.97287 6.856348-2.493218 13.712696 1.246609 44.877913 16.205913 88.509217 46.747826 130.270609 6.856348 10.596174 10.596174 17.452522 10.596174 22.438956z m39.268174-57.967304c-14.336 3.739826-22.438957 4.36313-23.685565 3.116522-23.062261-20.569043-28.048696-48.617739-15.582609-82.899479 4.986435-4.36313 18.69913-9.349565 40.514783-13.089391 21.192348-3.116522 34.905043-1.246609 39.891478 6.233044 18.075826 23.685565 13.712696 49.241043-13.089391 76.666434-5.609739 3.739826-14.336 6.233043-28.048696 9.97287z m506.924522-11.842783c0 5.609739 11.842783 4.986435 36.151652-1.246608a790.884174 790.884174 0 0 1 149.593044-16.205913c20.569043 3.739826 31.165217-1.246609 29.918608-14.959305 5.609739-56.097391 19.322435-92.249043 39.891479-110.324869 9.349565-5.609739 8.102957-11.219478-3.116522-17.452522-12.466087-5.609739-24.30887-11.219478-34.905044-15.582609-12.466087-4.986435-33.658435-4.986435-64.200348 0 2.493217-3.116522 8.102957-9.349565 17.452522-18.075826 13.712696-11.219478 23.685565-19.322435 31.165218-23.062261 6.856348-3.116522 9.97287-7.479652 8.72626-11.842782-32.411826-21.192348-61.083826-28.672-85.392695-23.685566-7.479652 1.246609-13.089391 2.493217-18.075826 3.116522 21.815652-18.075826 40.514783-30.541913 56.720695-38.021565 9.349565-1.246609 7.479652-9.349565-5.609739-23.685565-14.336-14.336-23.062261-19.322435-28.048695-14.336-4.986435 5.609739-8.726261 10.596174-12.466087 15.582608-37.398261 44.877913-74.173217 81.65287-110.32487 109.078261a1711.415652 1711.415652 0 0 0-79.159652 51.110957c-13.089391 9.349565-10.596174 13.712696 6.233043 12.466087a887.407304 887.407304 0 0 0 67.940174-13.089391c18.075826-4.36313 29.918609-13.089391 34.281739-24.932174 2.493217-11.219478 8.726261-21.815652 18.699131-29.918609 3.739826-3.739826 8.726261-8.726261 16.205913-14.959304 33.03513-10.596174 57.344-13.712696 72.926609-7.479653 2.493217 6.233043-2.493217 16.829217-14.336 31.165218-9.349565 11.219478-18.075826 21.192348-28.048696 30.541913a38.733913 38.733913 0 0 0-6.233044 1.869913c-26.802087 7.479652-49.241043 12.466087-68.563478 14.959304-7.479652 0-13.089391 0-16.829217 0.623305-4.36313 0.623304-6.233043 6.856348-4.986435 19.322434 0 11.842783 3.739826 16.205913 10.596174 11.842783 14.959304-4.36313 35.528348-9.349565 62.330435-16.205913 62.330435-15.582609 99.105391-19.322435 110.324869-10.596174 3.116522 4.986435 4.36313 14.336 3.116522 27.425391-39.891478 5.609739-69.186783 9.349565-87.262609 11.842783-36.774957 4.986435-64.200348 8.102957-83.522782 11.219478-5.609739 1.246609-10.596174 1.246609-14.959305 1.246609-5.609739 0-6.233043 3.739826-1.246608 11.219478 3.739826 7.479652 6.233043 14.336 8.726261 21.192348 1.246609 6.856348 9.349565 6.233043 22.438956-1.869913 4.36313-2.493217 25.555478-7.479652 63.577044-13.712696a1675.664696 1675.664696 0 0 1 85.392695-10.596174c-4.986435 15.582609-9.349565 26.178783-13.089391 32.411826-3.739826 3.116522-9.97287 4.986435-21.192348 5.60974-11.842783 0.623304-27.425391 2.493217-45.501217 4.986434-19.322435 3.116522-53.604174 9.97287-102.221913 20.569044-4.986435 1.246609-6.233043 3.739826-4.986435 7.479652 0 4.986435 0.623304 9.97287 1.869913 14.959304z m342.194087 88.509218c3.739826 5.609739 8.102957 6.233043 14.336 2.493217 5.609739-3.739826 8.726261-15.582609 9.972869-36.151652 0-21.192348-2.493217-31.788522-6.233043-33.03513-29.918609-11.842783-64.200348-19.322435-104.71513-23.685566-11.219478 1.246609-12.466087 4.986435-5.60974 10.596174 18.075826 14.959304 43.008 34.281739 74.173218 59.837218 7.479652 8.726261 13.089391 15.582609 18.075826 19.945739z m-137.126957 95.988869c24.30887 0 42.384696-0.623304 54.850783-1.869913 10.596174-3.739826 23.062261-6.233043 35.528348-8.102956 11.842783-1.246609 16.205913-6.233043 12.466087-13.089392-6.856348-12.466087-24.30887-36.774957-53.604174-73.549913a267.575652 267.575652 0 0 0-64.823652-55.474087 126.886957 126.886957 0 0 1 9.349565-10.596173c4.986435-7.479652 2.493217-10.596174-6.233044-8.726261-8.102957 2.493217-16.205913 4.986435-23.685565 7.479652a270.514087 270.514087 0 0 0-39.268174-17.452522c-12.466087-1.869913-11.219478 0.623304 2.493218 7.479652 6.856348 4.986435 13.712696 10.596174 21.192347 16.205913-9.97287 4.36313-18.075826 8.102957-24.308869 13.089392-11.219478 7.479652-24.30887 6.856348-40.514783-1.869913-8.102957-4.986435-11.219478-3.116522-9.972869 5.609739 9.349565 26.178783 21.192348 41.761391 35.528348 45.501217 6.233043 4.986435 13.712696 3.116522 22.438956-5.609739 14.336-18.69913 27.425391-31.788522 38.021565-39.268174 8.726261 8.102957 17.452522 15.582609 26.802087 24.30887 21.192348 21.815652 28.048696 43.008 20.569044 62.330434-5.609739 6.856348-26.802087 9.349565-60.460522 6.233044-35.528348-1.869913-61.70713-10.596174-78.536348-24.932174-25.555478-9.349565-41.138087-34.905043-46.747826-75.419826 0-6.856348-4.986435-11.219478-17.452522-13.089391-13.089391-1.869913-16.205913 0.623304-9.972869 8.102956 1.246609 4.36313 3.116522 18.075826 6.856348 41.138087 2.493217 23.062261 16.205913 46.747826 39.268174 72.303304 9.349565 13.712696 23.062261 21.815652 39.891478 26.802087 26.802087 3.739826 45.501217 5.609739 56.720695 8.102957 9.97287 3.116522 28.048696 4.36313 53.604174 4.36313z m-271.137391-25.555478c9.349565 3.116522 13.712696-4.36313 12.466087-21.815652 1.246609-23.062261 11.842783-54.227478 29.918609-93.495652 0.623304-2.493217 0.623304-4.986435-0.623305-6.233044-1.869913-1.246609-3.739826-0.623304-6.233043 1.246609a705.669565 705.669565 0 0 0-71.68 72.303304 29.161739 29.161739 0 0 1-8.726261 4.986435c-3.739826 1.869913 0.623304 8.726261 13.089391 21.192348 11.219478 11.842783 22.438957 19.322435 31.788522 21.815652z" fill="#F55F4E" p-id="2578"></path></svg>