<?xml version="1.0" encoding="UTF-8"?>
<svg width="24px" height="24px" viewBox="0 0 24 24" version="1.1" xmlns="http://www.w3.org/2000/svg" xmlns:xlink="http://www.w3.org/1999/xlink">
    <title>tixing</title>
    <g id="图标控件页及更新记录" stroke="none" stroke-width="1" fill="none" fill-rule="evenodd">
        <g id="icons" transform="translate(-1333.000000, -343.000000)">
            <g id="tixing" transform="translate(1333.000000, 343.000000)">
                <rect id="矩形备份-25" x="0" y="0" width="24" height="24"></rect>
                <g id="编组" transform="translate(2.000000, 2.000000)" fill="#FFA200" fill-rule="nonzero">
                    <path d="M10,0 C4.47767857,0 0,4.47767857 0,10 C0,15.5223214 4.47767857,20 10,20 C15.5223214,20 20,15.5223214 20,10 C20,4.47767857 15.5223214,0 10,0 Z M9.98660714,16.25 C9.296875,16.25 8.73883929,15.6919643 8.73883929,15 C8.73883929,14.3080357 9.296875,13.75 9.98660714,13.75 C10.6763393,13.75 11.234375,14.3080357 11.234375,15 C11.234375,15.6919643 10.6763393,16.25 9.98660714,16.25 Z M11.234375,10.625 C11.234375,10.9709821 10.9553571,11.25 10.609375,11.25 L9.36160714,11.25 C9.01785714,11.25 8.73660714,10.9709821 8.73660714,10.625 L8.73660714,4.375 C8.73660714,4.02901786 9.015625,3.75 9.36160714,3.75 L10.609375,3.75 C10.953125,3.75 11.234375,4.02901786 11.234375,4.375 L11.234375,10.625 Z" id="形状"></path>
                </g>
            </g>
        </g>
    </g>
</svg>