<?xml version="1.0" encoding="UTF-8"?>
<svg width="24px" height="24px" viewBox="0 0 24 24" version="1.1" xmlns="http://www.w3.org/2000/svg" xmlns:xlink="http://www.w3.org/1999/xlink">
    <title>tongguo </title>
    <g id="图标控件页及更新记录" stroke="none" stroke-width="1" fill="none" fill-rule="evenodd">
        <g id="icons" transform="translate(-1201.000000, -343.000000)">
            <g id="tongguo-" transform="translate(1201.000000, 343.000000)">
                <rect id="矩形备份-25" x="0" y="0" width="24" height="24"></rect>
                <g id="编组" transform="translate(2.000000, 2.000000)" fill-rule="nonzero">
                    <path d="M-3.38793245e-15,10 C-3.38793245e-15,13.5726559 1.90598917,16.8739262 5,18.6602542 C8.09401075,20.4465821 11.9059893,20.4465821 15,18.6602542 C18.0940108,16.8739262 20,13.5726559 20,10 C20,4.4771525 15.5228475,-6.7758649e-15 10,-6.7758649e-15 C4.4771525,-6.7758649e-15 -3.38793245e-15,4.4771525 -3.38793245e-15,10 Z" id="路径" fill="#00CC82"></path>
                    <path d="M16.5437859,7.29259502 L8.86355064,14.9728303 C8.68216296,15.1542179 8.4315588,15.2664357 8.15478602,15.2664357 C7.87803652,15.2664357 7.62743236,15.1542179 7.44604467,14.9728303 L3.10568492,10.6315392 C2.91728839,10.444235 2.81158513,10.1893904 2.81210086,9.92372917 C2.81210086,9.37023016 3.26092726,8.92233692 3.81351828,8.92233692 C4.09026779,8.92233692 4.34082538,9.03455469 4.52225963,9.21591909 L8.15478602,12.8475142 L15.1272112,5.87508905 C15.3085989,5.69465592 15.559203,5.58243815 15.8359525,5.58243815 C16.3885668,5.58243815 16.8373681,6.03126266 16.8373681,6.58385368 C16.8373681,6.86060318 16.7251736,7.11116078 16.5437859,7.29259502 Z" id="路径" fill="#FFFFFF"></path>
                </g>
            </g>
        </g>
    </g>
</svg>