<?xml version="1.0" encoding="UTF-8"?>
<svg width="24px" height="24px" viewBox="0 0 24 24" version="1.1" xmlns="http://www.w3.org/2000/svg" xmlns:xlink="http://www.w3.org/1999/xlink">
    <title>weitongguo备份</title>
    <g id="图标控件页及更新记录" stroke="none" stroke-width="1" fill="none" fill-rule="evenodd">
        <g id="icons" transform="translate(-1445.000000, -1376.000000)">
            <g id="编组-12备份-2" transform="translate(1421.000000, 1360.000000)">
                <g id="weitongguo备份" transform="translate(24.000000, 16.000000)">
                    <rect id="矩形备份-25" x="0" y="0" width="24" height="24"></rect>
                    <g id="编组" transform="translate(2.000000, 2.000000)" fill="#F63A2F" fill-rule="nonzero">
                        <path d="M10,0 C4.53333333,0 0,4.53333333 0,10 C0,15.4666667 4.53333333,20 10,20 C15.4666667,20 20,15.4666667 20,10 C20,4.53333333 15.4666667,0 10,0 Z M14.2666667,12.8 C14.6666667,13.2 14.6666667,13.7333333 14.2666667,14.1333333 C13.8666667,14.5333333 13.3333333,14.5333333 12.9333333,14.1333333 L10.1333333,11.3333333 L7.2,14.2666667 C6.8,14.6666667 6.13333333,14.6666667 5.73333333,14.2666667 C5.33333333,13.8666667 5.33333333,13.2 5.73333333,12.8 L8.66666667,9.86666667 L5.86666667,7.06666667 C5.46666667,6.66666667 5.46666667,6.13333333 5.86666667,5.73333333 C6.26666667,5.33333333 6.8,5.33333333 7.2,5.73333333 L10,8.53333333 L12.9333333,5.6 C13.3333333,5.2 14,5.2 14.4,5.6 C14.8,6 14.8,6.66666667 14.4,7.06666667 L11.4666667,10 L14.2666667,12.8 Z" id="形状"></path>
                    </g>
                </g>
            </g>
        </g>
    </g>
</svg>